<?xml version="1.0" encoding="UTF-8"?>
<svg version="1.1" xmlns="http://www.w3.org/2000/svg" width="1024" height="1024">
<path d="M0 0 C337.92 0 675.84 0 1024 0 C1024 337.92 1024 675.84 1024 1024 C686.08 1024 348.16 1024 0 1024 C0 686.08 0 348.16 0 0 Z " fill="#000000" transform="translate(0,0)"/>
<path d="M0 0 C1.84700888 -0.00678104 3.69401099 -0.0156869 5.54100037 -0.02655029 C10.5432741 -0.04929554 15.54503073 -0.04052613 20.54731321 -0.02465487 C25.79169799 -0.01196736 31.03603945 -0.02374425 36.28042603 -0.03158569 C45.08856119 -0.04067555 53.89648656 -0.02871339 62.70458984 -0.00488281 C72.87259552 0.02231021 83.04009959 0.01352477 93.20809305 -0.01401484 C101.95148158 -0.03674396 110.69471956 -0.03988689 119.43812811 -0.02682149 C124.65419263 -0.01904573 129.87002183 -0.01793341 135.08607101 -0.03450394 C139.99304346 -0.04900419 144.89937294 -0.03882574 149.80627632 -0.01003265 C151.60168582 -0.00345072 153.39714991 -0.0052697 155.19253731 -0.01634598 C173.35902885 -0.11804136 173.35902885 -0.11804136 180.90087891 5.64697266 C184.99324052 10.53784385 186.01349698 14.50655202 186.06150818 20.73698425 C186.07657661 22.278134 186.07657661 22.278134 186.09194946 23.85041809 C186.09778046 24.97203842 186.10361145 26.09365875 186.10961914 27.24926758 C186.11940292 28.43508423 186.12918671 29.62090088 186.13926697 30.84265137 C186.16920573 34.77089336 186.19091184 38.69913348 186.20947266 42.62744141 C186.21276998 43.29703455 186.2160673 43.9666277 186.21946454 44.65651155 C186.250244 50.9779264 186.27693555 57.29934625 186.29388332 63.62081432 C186.31577224 71.68890314 186.35771766 79.7563251 186.4273209 87.8241474 C186.47467011 93.50669569 186.49883134 99.18906476 186.50608021 104.87180406 C186.51102037 108.26104713 186.52594179 111.64953752 186.56582451 115.03856468 C186.60475428 118.82547123 186.60577028 122.61064575 186.59790039 126.39770508 C186.62790131 128.06495384 186.62790131 128.06495384 186.6585083 129.7658844 C186.58967327 137.16223476 185.23186865 142.31892076 179.90087891 147.64697266 C172.48387886 153.64429305 161.65348607 152.21656002 152.65649414 152.18041992 C150.8060945 152.1874848 148.95570064 152.1962322 147.10531616 152.20652771 C142.09917796 152.22896437 137.09335676 152.22609584 132.08718753 152.21720624 C127.90217554 152.21208511 123.71722252 152.21939782 119.53221661 152.22667831 C109.65871337 152.24365822 99.78536477 152.2401296 89.91186523 152.22338867 C79.73529115 152.20645679 69.55914568 152.22232097 59.38261837 152.25461155 C50.63330748 152.28131885 41.88412993 152.28858072 33.13478237 152.28009647 C27.91431189 152.27517214 22.69409943 152.27735674 17.47366142 152.29788399 C12.56588207 152.31625976 7.65871912 152.31025912 2.75097275 152.28568459 C0.95310205 152.28068333 -0.84481579 152.28414864 -2.6426487 152.29683304 C-19.47340401 152.40616207 -19.47340401 152.40616207 -24.62522221 148.22144222 C-31.05277723 141.35530652 -31.82947147 135.67951611 -31.74609375 126.39111328 C-31.75923615 124.579842 -31.75923615 124.579842 -31.77264404 122.73197937 C-31.79080405 119.44035472 -31.78665581 116.14974539 -31.77074862 112.85813713 C-31.7580222 109.40121324 -31.76984832 105.94435352 -31.77767944 102.48742676 C-31.78675656 96.68387817 -31.77483948 90.88064852 -31.75097656 85.07714844 C-31.72376853 78.38312993 -31.7325841 71.68987304 -31.76010859 64.99587297 C-31.7828544 59.23166181 -31.78597323 53.46767891 -31.77291524 47.70343733 C-31.76515054 44.26809183 -31.76399598 40.83310343 -31.78059769 37.39778137 C-31.7933249 33.56561114 -31.77389879 29.73489428 -31.74609375 25.90283203 C-31.7562149 24.77532028 -31.76633606 23.64780853 -31.77676392 22.48612976 C-31.66920541 14.46675927 -30.07951531 9.89585194 -24.62466431 4.07306099 C-17.89212556 -1.39254499 -8.18256187 -0.0503564 0 0 Z " fill="#F6F7F6" transform="translate(384.09912109375,384.35302734375)"/>
<path d="M0 0 C56.43 0 112.86 0 171 0 C168.32802676 3.33996655 166.41379953 5.6852004 163.28125 8.3125 C158.88645704 12.07248953 154.6907851 16.01531908 150.5 20 C145.73331917 24.5322539 140.92034708 28.97560607 135.95117188 33.28515625 C132.73085408 36.11542555 129.61950487 39.05963663 126.5 42 C122.09226256 46.13542809 117.66879671 50.22683899 113.08203125 54.1640625 C110.77221969 56.20085694 108.52522214 58.29701154 106.27661133 60.40087891 C103.53774296 62.95601177 100.77314086 65.48216417 98 68 C97.15695312 68.76828125 96.31390625 69.5365625 95.4453125 70.328125 C92.22465142 73.06958737 89.34206604 75.42029783 85.0625 76 C79.03557196 75.39374097 75.04336633 70.03752331 71 66 C69.0182054 64.14655653 67.00853706 62.32437045 65 60.5 C63.97489895 59.55898737 62.95015589 58.61758459 61.92578125 57.67578125 C59.36054905 55.32974112 56.77922967 53.00415389 54.1875 50.6875 C49.86098922 46.80831828 45.61475239 42.84830422 41.375 38.875 C37.00560753 34.78101427 32.61649926 30.73507327 28.078125 26.828125 C25.2148534 24.30930712 22.42224551 21.71670738 19.625 19.125 C15.55658477 15.35829806 11.48296468 11.59859372 7.375 7.875 C6.59898437 7.17117188 5.82296875 6.46734375 5.0234375 5.7421875 C2.91489187 3.8547627 2.91489187 3.8547627 0 2 C0 1.34 0 0.68 0 0 Z " fill="#010101" transform="translate(376,398)"/>
<path d="M0 0 C1.55157315 1.447789 3.09338509 2.90611335 4.625 4.375 C5.44226563 5.14070313 6.25953125 5.90640625 7.1015625 6.6953125 C17.44290622 16.65245769 25.48316906 27.94879012 32.625 40.375 C32.96273438 40.96007324 33.30046875 41.54514648 33.6484375 42.14794922 C40.44705011 54.03593678 45.29756537 66.06526149 48.625 79.375 C42.685 79.375 36.745 79.375 30.625 79.375 C30.00625 77.828125 29.3875 76.28125 28.75 74.6875 C22.42834122 59.64017135 15.95561644 45.1213452 5.625 32.375 C5.14772461 31.78106445 4.67044922 31.18712891 4.17871094 30.57519531 C-19.44655867 1.43992797 -54.13054773 -18.47277349 -91.7175293 -22.42431641 C-107.62803946 -23.62582668 -123.88236571 -23.65972212 -139.375 -19.625 C-140.56996094 -19.35816406 -141.76492188 -19.09132813 -142.99609375 -18.81640625 C-167.78677613 -12.91386283 -189.01559609 0.05164054 -207.75 17 C-208.26079102 17.45721436 -208.77158203 17.91442871 -209.29785156 18.38549805 C-212.21241442 21.06583779 -214.24192507 23.71772511 -216.3125 27.0625 C-219.33528546 30.02743114 -221.25589978 30.80330772 -225.46875 30.86328125 C-226.42015869 30.87979736 -227.37156738 30.89631348 -228.35180664 30.91333008 C-232.70219736 30.85700854 -237.03498088 30.6782939 -241.375 30.375 C-226.74125822 0.10774564 -190.95468188 -22.3184587 -160.37109375 -33.0078125 C-104.89498197 -51.40414629 -43.59398144 -38.49328158 0 0 Z " fill="#FAFAF9" transform="translate(620.375,339.625)"/>
<path d="M0 0 C1.58206057 0.00667536 3.16410534 0.0186375 4.74609375 0.03515625 C5.55240234 0.03966797 6.35871094 0.04417969 7.18945312 0.04882812 C9.18753131 0.06065107 11.18557158 0.07858711 13.18359375 0.09765625 C12.58774232 5.36443501 11.40571754 10.05077824 9.62109375 15.03515625 C9.3578833 15.77169434 9.09467285 16.50823242 8.82348633 17.26708984 C2.29591971 34.98017967 -7.32594836 51.94324463 -19.81640625 66.09765625 C-20.58210937 66.97292969 -21.3478125 67.84820313 -22.13671875 68.75 C-40.98425662 89.99341133 -63.14049084 104.52018001 -89.81640625 114.09765625 C-90.9559375 114.50757813 -92.09546875 114.9175 -93.26953125 115.33984375 C-96.4292279 116.38497418 -99.59546014 117.26065865 -102.81640625 118.09765625 C-103.4309668 118.278125 -104.04552734 118.45859375 -104.67871094 118.64453125 C-128.44075151 125.49651762 -159.13971247 125.0186869 -182.81640625 118.09765625 C-183.68313965 117.85096191 -184.54987305 117.60426758 -185.44287109 117.35009766 C-197.53667187 113.82517344 -208.82654399 109.24279965 -219.81640625 103.09765625 C-220.78682861 102.55987549 -220.78682861 102.55987549 -221.77685547 102.01123047 C-230.48901453 97.13233516 -238.3066648 91.72186922 -245.81640625 85.09765625 C-246.66847656 84.35515625 -247.52054687 83.61265625 -248.3984375 82.84765625 C-250.90401624 80.63073865 -253.36868613 78.37821499 -255.81640625 76.09765625 C-256.57824219 75.38996094 -257.34007812 74.68226563 -258.125 73.953125 C-264.10351631 68.20255905 -269.12486016 61.92978957 -273.81640625 55.09765625 C-273.81640625 54.76765625 -273.81640625 54.43765625 -273.81640625 54.09765625 C-255.55491495 52.03799793 -255.55491495 52.03799793 -249.82226562 55.19628906 C-246.40983583 58.11689179 -243.87494472 61.74981661 -241.22363281 65.34912109 C-227.35561486 82.58068678 -201.76568754 93.38270047 -181.12890625 99.41015625 C-180.29834717 99.65290283 -179.46778809 99.89564941 -178.61206055 100.14575195 C-141.88244435 110.30668991 -102.79110482 103.66339472 -69.88012695 85.3581543 C-62.2504141 80.96415458 -55.40200104 75.95727996 -48.81640625 70.09765625 C-47.96691406 69.37964844 -47.11742187 68.66164063 -46.2421875 67.921875 C-39.99504971 62.53575161 -34.78913118 56.6693846 -29.81640625 50.09765625 C-29.08679688 49.1334375 -28.3571875 48.16921875 -27.60546875 47.17578125 C-18.0646353 33.98599746 -10.88407991 19.71679703 -5.875 4.24609375 C-4.48593834 0.1147886 -4.48593834 0.1147886 0 0 Z " fill="#F9FAF9" transform="translate(654.81640625,496.90234375)"/>
<path d="M0 0 C3.40236937 1.38850068 5.78187093 4.14579583 8.36474609 6.68701172 C12.96135673 11.20844414 17.07408289 15.24387851 23.73583984 16.21044922 C34.24939007 16.11889435 39.02283241 13.18173374 46.56005859 6.06591797 C48.9487628 3.85002999 51.42295091 1.817035 53.98974609 -0.18798828 C57.26667935 1.26596634 59.60385635 3.08020732 62.23974609 5.49951172 C63.11373047 6.30001953 63.98771484 7.10052734 64.88818359 7.92529297 C69.26187042 11.98574876 73.61334022 16.07010814 77.96118164 20.15820312 C81.96750466 23.92415617 85.99289995 27.66577037 90.05224609 31.37451172 C94.75219271 35.67363758 99.44254727 39.98272657 104.11474609 44.31201172 C104.76709229 44.91215088 105.41943848 45.51229004 106.09155273 46.13061523 C106.69990967 46.69578857 107.3082666 47.26096191 107.93505859 47.84326172 C108.47662598 48.3440625 109.01819336 48.84486328 109.57617188 49.36083984 C110.98974609 50.81201172 110.98974609 50.81201172 112.98974609 53.81201172 C56.55974609 53.81201172 0.12974609 53.81201172 -58.01025391 53.81201172 C-58.01025391 53.15201172 -58.01025391 52.49201172 -58.01025391 51.81201172 C-56.57666016 50.40185547 -56.57666016 50.40185547 -54.57275391 48.74951172 C-51.40268173 46.06026178 -48.42443866 43.27687795 -45.51025391 40.31201172 C-42.10655114 36.86152266 -38.58586402 33.64563778 -34.90869141 30.49169922 C-33.03054638 28.82996596 -31.26719875 27.10075647 -29.51025391 25.31201172 C-27.13983033 22.89868455 -24.70289083 20.63929319 -22.13525391 18.43701172 C-19.10286933 15.82693215 -16.25777537 13.09769986 -13.44775391 10.24951172 C-2.97427676 -0.27813858 -2.97427676 -0.27813858 0 0 Z " fill="#010202" transform="translate(434.01025390625,469.18798828125)"/>
<path d="M0 0 C21.81027921 -0.4411969 21.81027921 -0.4411969 31.1484375 -0.53710938 C37.50689378 -0.60272807 43.86359842 -0.68011801 50.22070312 -0.82983398 C55.34967251 -0.94986234 60.47676297 -1.0152283 65.60702896 -1.04364967 C67.55840758 -1.0638867 69.50968973 -1.10340937 71.4602623 -1.16303062 C87.5412815 -1.63475796 87.5412815 -1.63475796 92.3830719 2.40464783 C94.97064211 5.01316965 96.99209367 7.92542009 99 11 C99.97180931 12.13225587 100.96124189 13.25007621 101.98046875 14.33984375 C102.70878906 15.19707031 103.43710937 16.05429687 104.1875 16.9375 C105.32251953 18.25041016 105.32251953 18.25041016 106.48046875 19.58984375 C108 22 108 22 107.98828125 24.03125 C106.68084322 26.63579058 105.0069537 28.44753317 103 30.5625 C102.278125 31.32691406 101.55625 32.09132813 100.8125 32.87890625 C100.15404335 33.5489267 100.15404335 33.5489267 99.48228455 34.23248291 C97.86102496 36.05944034 97.86102496 36.05944034 96.47193909 38.67327881 C93.98920333 42.58353967 91.61291702 46.196476 86.98731613 47.61894035 C80.91447332 48.57541525 74.77461776 48.26083378 68.65234375 48.07421875 C66.66984896 48.05367839 64.68729797 48.03803163 62.70472717 48.02705383 C57.50989072 47.98523842 52.31848812 47.87736043 47.125 47.75531006 C40.88140073 47.62248533 34.63664694 47.5724024 28.39203644 47.50832367 C18.925643 47.40198217 9.46676891 47.19115034 0 47 C0 31.49 0 15.98 0 0 Z " fill="#FCFCFB" transform="translate(586,435)"/>
<path d="M0 0 C0 35.31 0 70.62 0 107 C-2.31 105.02 -4.62 103.04 -7 101 C-7.71027344 100.39414062 -8.42054688 99.78828125 -9.15234375 99.1640625 C-12.56385701 96.22284537 -15.83612005 93.20722077 -19 90 C-21.44663437 87.52036671 -23.92107774 85.14559624 -26.5625 82.875 C-31.2309824 78.85772045 -35.70240653 74.63713024 -40.19580078 70.42675781 C-46.08987027 64.90632891 -52.03466743 59.44322711 -58 54 C-56.59321194 50.77451847 -54.93721445 48.74383125 -52.3671875 46.35546875 C-51.64273437 45.67806641 -50.91828125 45.00066406 -50.171875 44.30273438 C-49.03492188 43.25569336 -49.03492188 43.25569336 -47.875 42.1875 C-47.14023437 41.50107422 -46.40546875 40.81464844 -45.6484375 40.10742188 C-41.4755099 36.22468906 -37.23079764 32.43852825 -32.92919922 28.69946289 C-29.76305184 25.9103523 -26.69618801 23.01777706 -23.625 20.125 C-18.48932405 15.30657846 -13.31739844 10.54256097 -8.05078125 5.8671875 C-6.60331858 4.5493072 -5.20850768 3.17246522 -3.85546875 1.7578125 C-2 0 -2 0 0 0 Z " fill="#030303" transform="translate(557,407)"/>
<path d="M0 0 C8.38581492 7.18784136 16.55779817 14.5839965 24.68505859 22.06005859 C27.36189249 24.51704344 30.05930912 26.94153085 32.8125 29.3125 C37.51684731 33.38299841 42.02339247 37.66886296 46.54614258 41.9387207 C49.44708759 44.66676924 52.35143028 47.31525796 55.4609375 49.8046875 C56.29882812 50.52914062 57.13671875 51.25359375 58 52 C58 52.66 58 53.32 58 54 C56.53125 55.4453125 56.53125 55.4453125 54.5 57.125 C51.53322639 59.64257902 48.72425751 62.22168976 46 65 C42.7784145 68.27202128 39.41407855 71.29316055 35.93359375 74.28515625 C33.43568444 76.5004738 31.11975011 78.8689817 28.78125 81.25 C26.28103815 83.70634849 23.62319484 85.96309368 20.96875 88.25 C19.06976929 89.93798286 17.27994012 91.68769734 15.5 93.5 C10.66114872 98.41636149 5.51715104 102.86213672 0 107 C0 71.69 0 36.38 0 0 Z " fill="#020202" transform="translate(366,407)"/>
<path d="M0 0 C0.62261719 0.4125 1.24523437 0.825 1.88671875 1.25 C2.51964844 1.6625 3.15257812 2.075 3.8046875 2.5 C9.71281049 6.93424156 13.18586063 12.93089061 14.3671875 20.2109375 C14.76386326 28.55184936 12.59417858 34.96710295 7.125 41.28515625 C1.15196221 46.99164874 -5.86964683 50.37843453 -14.17578125 50.6875 C-22.37667585 50.31414687 -29.88835 47.49519471 -35.7421875 41.61328125 C-42.02347398 34.63575579 -42.65669329 28.26382995 -42.421875 19.14453125 C-41.88636799 12.38629724 -39.76716004 8.55600638 -34.86328125 4 C-33.63349384 3.05638954 -32.38328765 2.13874154 -31.11328125 1.25 C-30.56285156 0.83492187 -30.01242187 0.41984375 -29.4453125 -0.0078125 C-21.42642265 -5.07051117 -8.14201199 -4.46647515 0 0 Z " fill="#F7F7F6" transform="translate(648.11328125,666.75)"/>
<path d="M0 0 C13 0 13 0 15.92871094 2.37084961 C16.52458008 3.45374268 17.12044922 4.53663574 17.734375 5.65234375 C18.06874573 6.22706924 18.40311646 6.80179474 18.74761963 7.39393616 C19.79619092 9.21936968 20.77217059 11.07339191 21.75 12.9375 C22.44859879 14.18418777 23.15169129 15.42836864 23.859375 16.66992188 C25.14376251 18.93360019 26.39189356 21.20613279 27.62402344 23.49975586 C28.7773118 25.87016574 28.7773118 25.87016574 30 27 C30.41362793 26.25314941 30.82725586 25.50629883 31.25341797 24.73681641 C32.79010903 21.96593933 34.32981352 19.19676557 35.87158203 16.42871094 C36.53816022 15.23049204 37.20353414 14.03160238 37.86767578 12.83203125 C38.82267216 11.10761328 39.78236801 9.38580056 40.7421875 7.6640625 C41.3182373 6.62717285 41.89428711 5.5902832 42.48779297 4.52197266 C44 2 44 2 46 0 C50.29 0 54.58 0 59 0 C59 16.83 59 33.66 59 51 C54.38 51 49.76 51 45 51 C44.67 43.08 44.34 35.16 44 27 C40.66537544 33.23731367 40.66537544 33.23731367 37.39038086 39.50585938 C36.07262151 41.8747093 34.79485742 43.96489257 33 46 C29.39453125 46.98046875 29.39453125 46.98046875 26 46 C24.12918292 43.85609385 23.02408951 42.27308537 21.75 39.8125 C21.10546875 38.66394531 20.4609375 37.51539063 19.796875 36.33203125 C19.20390625 35.23246094 18.6109375 34.13289062 18 33 C17.01 31.35 16.02 29.7 15 28 C14.67 35.59 14.34 43.18 14 51 C9.38 51 4.76 51 0 51 C0 34.17 0 17.34 0 0 Z " fill="#F7F8F7" transform="translate(314,665)"/>
<path d="M0 0 C4.393125 -0.0825 8.78625 -0.165 13.3125 -0.25 C14.67415283 -0.28641602 16.03580566 -0.32283203 17.4387207 -0.36035156 C25.76546766 -0.43532917 34.55339129 -0.03079273 41.02856445 5.83886719 C45.96961246 11.36703773 46.34627595 15.42065159 46.28125 22.79296875 C45.81399457 28.12097863 43.44753435 30.55246565 39.8125 34.1875 C32.12522799 39.14151974 24.98986279 39.30999527 16 39 C16 43.29 16 47.58 16 52 C10.72 52 5.44 52 0 52 C0 34.84 0 17.68 0 0 Z " fill="#F2F3F3" transform="translate(717,664)"/>
<path d="M0 0 C5.28 0 10.56 0 16 0 C16.83402344 1.86140625 17.66804688 3.7228125 18.52734375 5.640625 C19.07396013 6.86027667 19.62058921 8.07992265 20.16723633 9.29956055 C21.35124656 11.94139137 22.53459468 14.58351747 23.7175293 17.22583008 C26.41990318 23.25994704 29.12707159 29.29148697 31.8671875 35.30859375 C32.28492432 36.22801758 32.70266113 37.14744141 33.13305664 38.09472656 C33.90518692 39.7921026 34.68030175 41.4881249 35.45874023 43.18261719 C38 48.77736598 38 48.77736598 38 51 C32.72 51 27.44 51 22 51 C19 44 19 44 19 41 C11.74 41 4.48 41 -3 41 C-3.99 44.3 -4.98 47.6 -6 51 C-11.28 51 -16.56 51 -22 51 C-20.79659431 47.38978294 -19.69883684 44.13731956 -18.15234375 40.72631836 C-17.79857666 39.94207993 -17.44480957 39.15784149 -17.08032227 38.34983826 C-16.70319092 37.52154007 -16.32605957 36.69324188 -15.9375 35.83984375 C-15.54554443 34.97235001 -15.15358887 34.10485626 -14.74975586 33.21107483 C-13.50260343 30.45195493 -12.25151683 27.69464263 -11 24.9375 C-9.74913528 22.17649779 -8.49911823 19.4151167 -7.25024414 16.6532135 C-6.47469365 14.9386232 -5.69789366 13.22459738 -4.91967773 11.51121521 C-4.56591064 10.73012894 -4.21214355 9.94904266 -3.84765625 9.14428711 C-3.53836182 8.46289169 -3.22906738 7.78149628 -2.91040039 7.07945251 C-1.88712747 4.74218699 -0.94758478 2.36896194 0 0 Z " fill="#F7F7F7" transform="translate(400,665)"/>
<path d="M0 0 C13.53 0 27.06 0 41 0 C41 3.63 41 7.26 41 11 C32.42 11 23.84 11 15 11 C15 13.64 15 16.28 15 19 C22.59 19 30.18 19 38 19 C38 22.96 38 26.92 38 31 C30.41 31 22.82 31 15 31 C15 33.64 15 36.28 15 39 C23.91 39 32.82 39 42 39 C42 42.96 42 46.92 42 51 C28.14 51 14.28 51 0 51 C0 34.17 0 17.34 0 0 Z " fill="#F4F5F5" transform="translate(263,665)"/>
<path d="M0 0 C15.51 0 31.02 0 47 0 C47 3.96 47 7.92 47 12 C42.05 12 37.1 12 32 12 C32 24.87 32 37.74 32 51 C26.72 51 21.44 51 16 51 C16 38.13 16 25.26 16 12 C10.72 12 5.44 12 0 12 C0 8.04 0 4.08 0 0 Z " fill="#F0F1F0" transform="translate(664,665)"/>
<path d="M0 0 C4.95 0 9.9 0 15 0 C15 12.87 15 25.74 15 39 C23.25 39 31.5 39 40 39 C40 42.96 40 46.92 40 51 C26.8 51 13.6 51 0 51 C0 34.17 0 17.34 0 0 Z " fill="#F6F7F7" transform="translate(469,665)"/>
<path d="M0 0 C0.66 0 1.32 0 2 0 C2.51046875 1.17755859 2.51046875 1.17755859 3.03125 2.37890625 C8.05320028 13.26425062 13.78827324 18.82155554 25 23 C25 23.66 25 24.32 25 25 C24.21496094 25.3403125 23.42992187 25.680625 22.62109375 26.03125 C11.73574938 31.05320028 6.17844446 36.78827324 2 48 C1.34 48 0.68 48 0 48 C-0.3403125 47.21496094 -0.680625 46.42992187 -1.03125 45.62109375 C-6.05320028 34.73574938 -11.78827324 29.17844446 -23 25 C-23 24.34 -23 23.68 -23 23 C-22.21496094 22.6596875 -21.42992187 22.319375 -20.62109375 21.96875 C-9.73574938 16.94679972 -4.17844446 11.21172676 0 0 Z " fill="#7D7D7D" transform="translate(967,944)"/>
<path d="M0 0 C4.29 0 8.58 0 13 0 C13 4.29 13 8.58 13 13 C17.62 13 22.24 13 27 13 C27 16.96 27 20.92 27 25 C22.05 25 17.1 25 12 25 C12 29.29 12 33.58 12 38 C8.04 38 4.08 38 0 38 C0 33.71 0 29.42 0 25 C-4.62 25 -9.24 25 -14 25 C-14 21.04 -14 17.08 -14 13 C-9.38 13 -4.76 13 0 13 C0 8.71 0 4.42 0 0 Z " fill="#EFF0F0" transform="translate(549,672)"/>
<path d="M0 0 C4.62 0 9.24 0 14 0 C14 16.5 14 33 14 50 C9.38 50 4.76 50 0 50 C0 33.5 0 17 0 0 Z " fill="#FDFDFD" transform="translate(443,665)"/>
<path d="M0 0 C4.18543335 2.94882804 6.23243872 6.19974593 7.16796875 11.1484375 C7.4934781 16.3038018 6.35371061 19.45487782 3.234375 23.52734375 C0.2259405 26.38535652 -2.59034435 27.22869763 -6.6875 27.25 C-10.67416967 27.13871365 -13.17239008 26.65303816 -16.25 23.9375 C-19.49782726 19.45773826 -19.87106352 15.0251213 -19.74609375 9.63671875 C-18.94932848 5.30156286 -16.58993192 2.68905013 -13.25 -0.0625 C-9.00030284 -2.18734858 -4.33957977 -1.41870877 0 0 Z " fill="#050606" transform="translate(640.25,677.0625)"/>
<path d="M0 0 C3.34265205 1.20706879 3.94704566 1.92056849 6 5 C6.56551375 9.36253463 6.49322651 11.29752588 3.9375 14.9375 C1 17 1 17 -2.5 17.6875 C-6 17 -6 17 -9 14.4375 C-11 11 -11 11 -11.0625 7.375 C-9.11472357 1.18794547 -6.50191761 -0.8127397 0 0 Z " fill="#0A0B0B" transform="translate(666,450)"/>
<path d="M0 0 C2.4375 1.625 2.4375 1.625 4 4 C4.72125695 8.40768137 4.52001338 10.25937488 1.9375 13.9375 C-1 16 -1 16 -4.5 16.6875 C-8 16 -8 16 -11 13.4375 C-13 10 -13 10 -13.125 6.375 C-10.80869361 -0.57391916 -6.85196698 -1.99329948 0 0 Z " fill="#0C0B0B" transform="translate(610,451)"/>
<path d="M0 0 C3.63525215 2.60789828 4.83397068 4.0702358 5.625 8.5 C4.82883761 12.95850936 3.69186542 14.40783917 0 17 C-3.92582814 17.6198676 -6.00082919 17.58925458 -9.4375 15.5625 C-11.75071492 11.76882754 -11.91245385 8.32423783 -11 4 C-7.79382821 0.13373402 -4.93752469 -0.92578588 0 0 Z " fill="#070706" transform="translate(638,450)"/>
<path d="M0 0 C8.88568684 -0.4803074 8.88568684 -0.4803074 13.625 1.5625 C16 4 16 4 16.6875 7.5 C16 11 16 11 14.1875 13.4375 C9.37975734 15.7942366 5.32028699 15.25639937 0 15 C0 10.05 0 5.1 0 0 Z " fill="#121314" transform="translate(732,676)"/>
<path d="M0 0 C56.43 0 112.86 0 171 0 C168.525 2.475 168.525 2.475 166 5 C165.67 4.34 165.34 3.68 165 3 C165.33 2.34 165.66 1.68 166 1 C83.83 1.495 83.83 1.495 0 2 C0 1.34 0 0.68 0 0 Z " fill="#1C1B1B" transform="translate(376,398)"/>
<path d="M0 0 C0.66 0 1.32 0 2 0 C3.65 4.95 5.3 9.9 7 15 C3.04 15 -0.92 15 -5 15 C-1.85714286 4.28571429 -1.85714286 4.28571429 0 0 Z " fill="#1C1F21" transform="translate(407,680)"/>
<path d="M0 0 C0.33 0 0.66 0 1 0 C1.1306015 10.5092737 1.26100413 21.01854984 1.39115143 31.52782917 C1.45158736 36.40747002 1.51209232 41.28711 1.57275391 46.16674805 C1.63127042 50.87403861 1.6896071 55.58133137 1.74781799 60.28862572 C1.77008125 62.08639798 1.7924098 63.88416944 1.81480408 65.68194008 C1.84610886 68.19591694 1.87718353 70.70989655 1.90820312 73.22387695 C1.91755386 73.97050095 1.9269046 74.71712494 1.9365387 75.4863739 C1.97136654 78.32449957 2 81.16162571 2 84 C1.01 84.495 1.01 84.495 0 85 C0 56.95 0 28.9 0 0 Z " fill="#0C0D0E" transform="translate(366,429)"/>
</svg>
